# xmcd CD database file generated by Grip 3.2.0
# 
# Track frame offsets:
#       150
#       16191
#       32572
#       49675
#       61373
#       80512
#       94905
#       116136
#       130456
#       146693
#       159663
# 
# Disc length: 2382 seconds
# 
# Revision: 18
# Processed by: cddbd v1.5.2PL0 Copyright (c) Steve Scherf et al.
# Submitted via: Grip 3.2.0
# 
DISCID=94094c0b
DTITLE=Bob Marley and The Wailers - Rastaman Vibration
DYEAR=2001
DGENRE=Reggae
TTITLE0=Positive Vibration
TTITLE1=Roots, Rock, Reggae
TTITLE2=Johnny Was
TTITLE3=Cry To Me
TTITLE4=Want More
TTITLE5=Crazy Baldhead
TTITLE6=Who The Cap Fit
TTITLE7=Night Shift
TTITLE8=War
TTITLE9=Rat Race
TTITLE10=Jah Live
EXTD=YEAR: 2001
EXTT0=
EXTT1=
EXTT2=
EXTT3=
EXTT4=
EXTT5=
EXTT6=
EXTT7=
EXTT8=
EXTT9=
EXTT10=
PLAYORDER=
